<?xml version="1.0" standalone="no"?>
<!DOCTYPE svg PUBLIC "-//W3C//DTD SVG 1.1//EN" "http://www.w3.org/Graphics/SVG/1.1/DTD/svg11.dtd" >
<svg xmlns="http://www.w3.org/2000/svg">
<metadata></metadata>
<defs>
<font id="esenciaregular" horiz-adv-x="720" >
<font-face units-per-em="2048" ascent="1638" descent="-410" />
<missing-glyph horiz-adv-x="409" />
<glyph unicode="&#xfb01;" horiz-adv-x="1189" d="M61 365v73h201v996h369l65 276h76l-82 -350h-276v-922h233v-73h-233v-365h-152v365h-201zM915 0v1434h152v-1434h-152z" />
<glyph unicode="&#xfb02;" horiz-adv-x="1359" d="M61 365v73h201v996h369l65 276h76l-82 -350h-276v-922h233v-73h-233v-365h-152v365h-201zM915 0v1434h152v-1360h231v-74h-383z" />
<glyph unicode="&#xfb03;" horiz-adv-x="1798" d="M61 365v73h201v996h369l65 276h76l-82 -350h-276v-922h497v996h428v-74h-276v-922h233v-73h-233v-365h-152v365h-497v-365h-152v365h-201zM1524 0v1434h151v-1434h-151z" />
<glyph unicode="&#xfb04;" horiz-adv-x="1968" d="M61 365v73h201v996h369l65 276h76l-82 -350h-276v-922h497v996h428v-74h-276v-922h233v-73h-233v-365h-152v365h-497v-365h-152v365h-201zM1524 0v1434h151v-1360h232v-74h-383z" />
<glyph horiz-adv-x="0" />
<glyph horiz-adv-x="682" />
<glyph unicode=" "  horiz-adv-x="409" />
<glyph unicode="&#x09;" horiz-adv-x="409" />
<glyph unicode="&#xa0;" horiz-adv-x="409" />
<glyph unicode="!" horiz-adv-x="315" d="M82 0v184h151v-184h-151zM82 1434h151l-20 -1045h-111z" />
<glyph unicode="&#x22;" horiz-adv-x="399" d="M41 1083l84 351h76l-84 -351h-76zM199 1083l84 351h75l-84 -351h-75z" />
<glyph unicode="#" horiz-adv-x="735" d="M61 -41l107 614h-102v82h116l29 160h-105v82h119l103 578h80l-103 -578h187l102 578h80l-103 -578h105v-82h-119l-29 -160h105v-82h-119l-108 -614h-78l106 614h-186l-109 -614h-78zM262 655h187l28 160h-186z" />
<glyph unicode="$" horiz-adv-x="634" d="M61 1192q0 96 55 166.5t154 87.5v90h70v-88q39 -4 72.5 -21t47.5 -32l13 -15l49 70l27 -18l-105 -150q-43 92 -127 92q-104 0 -104 -153q0 -93 78 -246l209 -414q73 -143 73 -270q0 -75 -20.5 -133t-55 -93t-74 -54t-83.5 -25v-88h-70v88q-86 10 -146.5 74.5t-60.5 168.5 h74q0 -82 48 -127t114 -45q123 0 123 174q0 139 -57 250l-209 422q-48 96 -71.5 161t-23.5 128z" />
<glyph unicode="%" horiz-adv-x="1144" d="M82 803v442q0 95 41.5 147t118.5 52q75 0 115 -52.5t40 -146.5v-442q0 -57 -13.5 -97.5t-37 -61.5t-49.5 -30.5t-55 -9.5q-68 0 -114 45.5t-46 153.5zM180 748q0 -93 62 -93q57 0 57 93v550q0 45 -16 69t-41 24q-28 0 -45 -24t-17 -69v-550zM195 -41l675 1516h80 l-678 -1516h-77zM748 188v443q0 95 41 146.5t118 51.5q75 0 115.5 -52t40.5 -146v-443q0 -56 -14 -97t-37.5 -62t-49 -30t-55.5 -9q-68 0 -113.5 45t-45.5 153zM846 133q0 -92 61 -92q58 0 58 92v551q0 45 -16.5 68.5t-41.5 23.5q-28 0 -44.5 -23.5t-16.5 -68.5v-551z" />
<glyph unicode="&#x26;" horiz-adv-x="653" d="M102 328v92q0 301 183 330v22q-83 13 -133 91t-50 233v10q0 166 66 255t192 89q45 0 84 -17.5t56 -34.5l16 -18l49 70l27 -18l-105 -150q-43 92 -127 92q-47 0 -76.5 -44t-29.5 -128v-203q0 -108 22.5 -153.5t73.5 -48.5h72v-74h-62q-51 0 -78.5 -43.5t-27.5 -163.5v-274 q0 -185 123 -185q121 0 121 172v148h-99v82h172v-232q0 -116 -59 -179.5t-152 -63.5q-49 0 -92 16t-82 52.5t-61.5 107t-22.5 168.5z" />
<glyph unicode="'" horiz-adv-x="241" d="M41 1083l84 351h76l-84 -351h-76z" />
<glyph unicode="(" horiz-adv-x="382" d="M72 324v782q0 190 63 302t166 148v-75q-56 -33 -82 -99t-26 -180v-975q0 -115 25.5 -178.5t82.5 -97.5v-74q-103 37 -166 147t-63 300z" />
<glyph unicode=")" horiz-adv-x="382" d="M82 -49q57 34 82.5 97.5t25.5 178.5v975q0 114 -26 180t-82 99v75q103 -36 166 -148t63 -302v-782q0 -190 -63 -300t-166 -147v74z" />
<glyph unicode="*" horiz-adv-x="673" d="M61 1044l218 91l-218 92l60 102l186 -145l-28 235h112l-29 -237l193 139l57 -104l-223 -82l219 -86l-51 -97l-197 138l31 -236h-110l26 236l-190 -142z" />
<glyph unicode="+" d="M102 678v80h217v217h82v-217h217v-80h-217v-217h-82v217h-217z" />
<glyph unicode="," horiz-adv-x="315" d="M82 0v184h151v-184l-51 -211h-76l50 211h-74z" />
<glyph unicode="-" horiz-adv-x="462" d="M82 717v82h299v-82h-299z" />
<glyph unicode="." horiz-adv-x="315" d="M82 0v184h151v-184h-151z" />
<glyph unicode="/" horiz-adv-x="468" d="M61 -41l267 1516h80l-269 -1516h-78z" />
<glyph unicode="0" d="M102 328v778q0 166 66 255t192 89t192 -89t66 -255v-778q0 -98 -22.5 -168.5t-61.5 -107t-82 -52.5t-92 -16t-92 16t-82 52.5t-61.5 107t-22.5 168.5zM254 231q0 -174 106 -174q107 0 107 174v971q0 84 -30 128t-77 44t-76.5 -44t-29.5 -128v-971z" />
<glyph unicode="1" horiz-adv-x="417" d="M61 1360v74h234v-1434h-152v1360h-82z" />
<glyph unicode="2" horiz-adv-x="618" d="M61 0v84q0 96 33.5 196.5t81 187.5t95 173t81 184.5t33.5 190.5v186q0 174 -123 174q-121 0 -121 -172h-73q0 116 61 181t154 65q38 0 72 -9t68.5 -33.5t59 -62t39.5 -99t15 -140.5v-90q0 -99 -41.5 -201t-100.5 -188.5t-118 -172t-100.5 -181.5t-41.5 -187v-12h402v-74 h-476z" />
<glyph unicode="3" horiz-adv-x="632" d="M61 229h74q0 -172 121 -172q123 0 123 174v373q0 43 -19.5 62.5t-48.5 19.5h-104v74h104q28 0 48 20.5t20 65.5v356q0 174 -123 174q-121 0 -121 -172h-74q0 116 61 181t154 65q38 0 72 -9t68.5 -33.5t59 -62t39.5 -99t15 -140.5v-150q0 -111 -47 -166t-112 -55v-22 q63 0 111 -56.5t48 -167.5v-161q0 -79 -15 -140.5t-39.5 -99t-59 -62t-68.5 -33.5t-72 -9q-93 0 -154 64.5t-61 180.5z" />
<glyph unicode="4" horiz-adv-x="716" d="M61 492v73l281 869h203v-869h110v-73h-110v-492h-152v492h-332zM145 565h248v801z" />
<glyph unicode="5" horiz-adv-x="669" d="M98 246h74q0 -84 37.5 -127t101.5 -43q54 0 79.5 42.5t25.5 131.5v393q0 84 -30 128t-77 44q-40 0 -68.5 -28t-60.5 -89h-74l11 736h409v-74h-340l-6 -559q57 90 150 90q123 0 180 -87t57 -257v-201q0 -79 -15 -141t-40 -99.5t-59 -62t-68.5 -34t-73.5 -9.5 q-93 0 -153 65t-60 181z" />
<glyph unicode="6" d="M102 328v778q0 79 15 140.5t39.5 99t59 62t68.5 33.5t72 9q93 0 154 -65t61 -181h-73q0 172 -121 172q-123 0 -123 -174v-416q20 31 56.5 47.5t70.5 16.5q123 0 180 -87t57 -257v-178q0 -79 -16 -140.5t-41 -99t-60 -62t-69 -33.5t-72 -9q-49 0 -92 16t-82 52.5 t-61.5 107t-22.5 168.5zM254 231q0 -174 106 -174q107 0 107 174v371q0 84 -30 128t-77 44q-46 0 -76 -40t-30 -116v-387z" />
<glyph unicode="7" horiz-adv-x="616" d="M61 1360v74h494l-233 -1434h-152l219 1360h-328z" />
<glyph unicode="8" d="M102 328v51q0 145 50.5 231.5t148.5 106.5q-87 17 -143 97.5t-56 240.5v51q0 166 66 255t192 89t192 -89t66 -255v-51q0 -160 -55.5 -240.5t-142.5 -97.5q97 -20 147.5 -106.5t50.5 -231.5v-51q0 -98 -22.5 -168.5t-61.5 -107t-82 -52.5t-92 -16t-92 16t-82 52.5 t-61.5 107t-22.5 168.5zM254 231q0 -174 106 -174q107 0 107 174v244q0 84 -30 128t-77 44t-76.5 -44t-29.5 -128v-244zM254 958q0 -174 106 -174q107 0 107 174v244q0 84 -30 128t-77 44t-76.5 -44t-29.5 -128v-244z" />
<glyph unicode="9" d="M102 784v322q0 79 16 140.5t41 99t60 62t69 33.5t72 9q49 0 92 -16t82 -52.5t61.5 -107t22.5 -168.5v-778q0 -98 -22 -168.5t-60.5 -107t-80 -52.5t-90.5 -16q-93 0 -154 64.5t-61 180.5h73q0 -172 121 -172q123 0 123 174v273q-20 -31 -56.5 -47.5t-70.5 -16.5 q-123 0 -180.5 87t-57.5 257zM254 688q0 -84 29.5 -128t76.5 -44q46 0 76.5 40t30.5 116v530q0 174 -107 174q-106 0 -106 -174v-514z" />
<glyph unicode=":" horiz-adv-x="315" d="M82 0v184h151v-184h-151zM82 717v184h151v-184h-151z" />
<glyph unicode=";" horiz-adv-x="315" d="M82 0v184h151v-184l-51 -211h-76l50 211h-74zM82 717v184h151v-184h-151z" />
<glyph unicode="&#x3c;" horiz-adv-x="694" d="M102 688v57l490 283v-94l-377 -217l377 -217v-94z" />
<glyph unicode="=" d="M102 573v82h516v-82h-516zM102 778v82h516v-82h-516z" />
<glyph unicode="&#x3e;" horiz-adv-x="694" d="M102 406v94l377 217l-377 217v94l490 -283v-57z" />
<glyph unicode="?" horiz-adv-x="591" d="M61 1204q0 116 61 181t154 65q47 0 90 -16.5t81 -50t60.5 -94.5t22.5 -142q0 -79 -26.5 -152.5t-64.5 -133.5t-76 -122t-64.5 -144t-26.5 -173v-33h-73v33q0 85 18.5 164t45 142t53 125.5t45 139t18.5 158.5q0 120 -30 172.5t-93 52.5q-121 0 -121 -172h-74zM162 0v184 h151v-184h-151z" />
<glyph unicode="@" horiz-adv-x="950" d="M61 715q0 182 33 324.5t91.5 231t134.5 134t165 45.5q175 0 289.5 -180.5t114.5 -460.5q0 -168 -62 -284.5t-155 -116.5h-94l-41 213h-166l-43 -213h-92v51h49l133 665h129l125 -665q149 0 149 385q0 143 -42.5 268.5t-120.5 203t-173 77.5q-155 0 -255.5 -174.5 t-100.5 -503.5t100.5 -501.5t255.5 -172.5q125 0 201 113l55 -37q-91 -133 -256 -133q-89 0 -165 45t-134.5 133t-91.5 229.5t-33 323.5zM381 676h145l-69 375z" />
<glyph unicode="A" horiz-adv-x="1003" d="M31 0v74h121l254 1360h206l240 -1360h121v-74h-264l-68 377h-354l-70 -377h-186zM301 459h326l-158 895z" />
<glyph unicode="B" horiz-adv-x="675" d="M123 0v1434h272q80 0 139.5 -53.5t59.5 -159.5v-293q0 -96 -46.5 -145.5t-109.5 -49.5v-20q63 0 109.5 -49.5t46.5 -145.5v-305q0 -106 -59.5 -159.5t-139.5 -53.5h-272zM274 74h97q29 0 52 16.5t23 44.5v469q0 42 -20 62t-47 20h-105v-612zM274 760h105q27 0 47 20 t20 62v456q0 28 -23.5 45t-51.5 17h-97v-600z" />
<glyph unicode="C" horiz-adv-x="630" d="M102 328v778q0 167 65.5 255.5t190.5 88.5q45 0 84 -17.5t56 -34.5l16 -18l49 70l27 -18l-105 -150q-43 92 -127 92q-46 0 -75 -44t-29 -128v-971q0 -174 123 -174q121 0 121 172h73q0 -116 -60.5 -180.5t-152.5 -64.5q-49 0 -91.5 16t-81 52.5t-61 107t-22.5 168.5z" />
<glyph unicode="D" horiz-adv-x="700" d="M123 0v1434h237q258 0 258 -328v-778q0 -328 -258 -328h-237zM274 74h88q56 0 80.5 35t24.5 122v971q0 83 -29.5 120.5t-77.5 37.5h-86v-1286z" />
<glyph unicode="E" horiz-adv-x="792" d="M61 365v73h201v996h369l65 276h76l-82 -350h-276v-922h233v-73h-233v-291h231v-74h-383v365h-201z" />
<glyph unicode="F" horiz-adv-x="792" d="M61 365v73h201v996h369l65 276h76l-82 -350h-276v-922h233v-73h-233v-365h-152v365h-201z" />
<glyph unicode="G" horiz-adv-x="630" d="M102 328v778q0 167 65.5 255.5t190.5 88.5q45 0 84 -17.5t56 -34.5l16 -18l49 70l27 -18l-105 -150q-43 92 -127 92q-46 0 -75 -44t-29 -128v-971q0 -174 123 -174q121 0 121 172v148h-99v82h172v-230q0 -116 -60.5 -180.5t-152.5 -64.5q-49 0 -91.5 16t-81 52.5t-61 107 t-22.5 168.5z" />
<glyph unicode="H" horiz-adv-x="847" d="M123 0v1434h151v-975h299v975h152v-1434h-152v385h-299v-385h-151z" />
<glyph unicode="I" horiz-adv-x="397" d="M123 0v1434h151v-1434h-151z" />
<glyph unicode="J" horiz-adv-x="653" d="M61 229h74q0 -172 121 -172q123 0 123 174v1129h-244v74h395v-1106q0 -79 -15 -140.5t-39.5 -99t-59 -62t-68.5 -33.5t-72 -9q-93 0 -154 64.5t-61 180.5z" />
<glyph unicode="K" horiz-adv-x="710" d="M123 0v1434h151v-674h105q27 0 47 20t20 62v592h148v-506q0 -91 -43.5 -144t-112.5 -53v-22q70 -2 113 -51t43 -140v-444h55v-74h-203v604q0 41 -22.5 61.5t-52.5 20.5h-97v-686h-151z" />
<glyph unicode="L" horiz-adv-x="567" d="M123 0v1434h151v-1360h232v-74h-383z" />
<glyph unicode="M" horiz-adv-x="1230" d="M41 0v74h129v1360h221l244 -1379l256 1379h217v-1434h-152v1366l-254 -1366h-208l-250 1376v-1376h-203z" />
<glyph unicode="N" horiz-adv-x="878" d="M41 0v74h129v1360h213l260 -1368v1368h195v-74h-121v-1360h-213l-260 1366v-1366h-203z" />
<glyph unicode="O" d="M102 328v778q0 166 66 255t192 89t192 -89t66 -255v-778q0 -98 -22.5 -168.5t-61.5 -107t-82 -52.5t-92 -16t-92 16t-82 52.5t-61.5 107t-22.5 168.5zM254 231q0 -174 106 -174q107 0 107 174v971q0 84 -30 128t-77 44t-76.5 -44t-29.5 -128v-971z" />
<glyph unicode="P" horiz-adv-x="675" d="M123 0v1434h272q80 0 139.5 -53.5t59.5 -159.5v-367q0 -113 -51 -172t-125 -59h-144v-623h-151zM274 696h105q27 0 47 20t20 62v500q0 41 -22.5 61.5t-52.5 20.5h-97v-664z" />
<glyph unicode="Q" d="M102 328v778q0 166 66 255t192 89t192 -89t66 -255v-778q0 -108 -29 -182t-69.5 -107.5t-95.5 -46.5l45 -191h-76l-43 183q-49 2 -90 18.5t-78 53.5t-58.5 106.5t-21.5 165.5zM254 231q0 -152 78 -170l-21 91h76l19 -84q61 30 61 163v971q0 84 -30 128t-77 44t-76.5 -44 t-29.5 -128v-971z" />
<glyph unicode="R" horiz-adv-x="718" d="M123 0v1434h280q80 0 139.5 -53.5t59.5 -159.5v-293q0 -96 -46.5 -145.5t-109.5 -49.5v-22q64 -2 110 -50t46 -143v-444h55v-74h-202v604q0 41 -19.5 61.5t-48.5 20.5h-113v-686h-151zM274 760h113q27 0 47.5 20t20.5 62v436q0 41 -23 61.5t-53 20.5h-105v-600z" />
<glyph unicode="S" horiz-adv-x="669" d="M41 0v74h100q54 0 84.5 62t30.5 171q0 91 -23 248l-53 336q-16 107 -16 223q0 48 15.5 102t45 106t80.5 86t113 34q82 0 153 -64l47 60l31 -25l-100 -131q-2 3 -6 8.5t-17.5 19t-28 23.5t-37 18.5t-44.5 8.5q-44 0 -81.5 -42.5t-37.5 -109.5q0 -31 4 -70.5t8 -66.5 t13 -79.5t12 -73.5l53 -336q12 -82 12 -191q0 -70 -14.5 -136.5t-44 -125t-81 -94t-118.5 -35.5h-100z" />
<glyph unicode="T" horiz-adv-x="757" d="M41 1360v74h676v-74h-262v-1360h-152v1360h-262z" />
<glyph unicode="U" horiz-adv-x="733" d="M41 1360v74h195v-1205q0 -172 120 -172q123 0 123 174v1203h152v-1106q0 -79 -15 -140.5t-39.5 -99t-59 -62t-68.5 -33.5t-72 -9q-93 0 -154 64.5t-61 180.5v1131h-121z" />
<glyph unicode="V" horiz-adv-x="1003" d="M31 1360v74h264l240 -1356l251 1356h187v-74h-123l-252 -1360h-207l-241 1360h-119z" />
<glyph unicode="W" horiz-adv-x="1392" d="M41 1360v74h264l201 -1350l162 872l-70 478h158l198 -1340l211 1340h187v-74h-121l-213 -1360h-207l-109 725l-135 -725h-207l-202 1360h-117z" />
<glyph unicode="X" horiz-adv-x="819" d="M20 0v74h72l250 651l-215 635h-66v74h203l172 -508l197 508h145v-74h-98l-209 -541l254 -745h74v-74h-213l-209 618l-236 -618h-121z" />
<glyph unicode="Y" horiz-adv-x="692" d="M20 1360v74h203l164 -652l176 652h109v-74h-51l-197 -729v-631h-152v637l-186 723h-66z" />
<glyph unicode="Z" horiz-adv-x="677" d="M61 0l338 1360h-317v74h493l-337 -1360h378v-74h-555z" />
<glyph unicode="[" horiz-adv-x="382" d="M82 -123v1679h219v-73h-108v-1532h108v-74h-219z" />
<glyph unicode="\" horiz-adv-x="468" d="M61 1475h80l267 -1516h-78z" />
<glyph unicode="]" horiz-adv-x="382" d="M82 -49h108v1532h-108v73h219v-1679h-219v74z" />
<glyph unicode="^" horiz-adv-x="745" d="M61 717l283 489h57l283 -489h-94l-217 377l-217 -377h-95z" />
<glyph unicode="_" horiz-adv-x="1026" d="M0 -328h1026v-82h-1026v82z" />
<glyph unicode="`" horiz-adv-x="249" d="M72 1638h82l34 -143h-75z" />
<glyph unicode="a" horiz-adv-x="1003" d="M31 0v74h121l254 1360h206l240 -1360h121v-74h-264l-68 377h-354l-70 -377h-186zM301 459h326l-158 895z" />
<glyph unicode="b" horiz-adv-x="675" d="M123 0v1434h272q80 0 139.5 -53.5t59.5 -159.5v-293q0 -96 -46.5 -145.5t-109.5 -49.5v-20q63 0 109.5 -49.5t46.5 -145.5v-305q0 -106 -59.5 -159.5t-139.5 -53.5h-272zM274 74h97q29 0 52 16.5t23 44.5v469q0 42 -20 62t-47 20h-105v-612zM274 760h105q27 0 47 20 t20 62v456q0 28 -23.5 45t-51.5 17h-97v-600z" />
<glyph unicode="c" horiz-adv-x="630" d="M102 328v778q0 167 65.5 255.5t190.5 88.5q45 0 84 -17.5t56 -34.5l16 -18l49 70l27 -18l-105 -150q-43 92 -127 92q-46 0 -75 -44t-29 -128v-971q0 -174 123 -174q121 0 121 172h73q0 -116 -60.5 -180.5t-152.5 -64.5q-49 0 -91.5 16t-81 52.5t-61 107t-22.5 168.5z" />
<glyph unicode="d" horiz-adv-x="700" d="M123 0v1434h237q258 0 258 -328v-778q0 -328 -258 -328h-237zM274 74h88q56 0 80.5 35t24.5 122v971q0 83 -29.5 120.5t-77.5 37.5h-86v-1286z" />
<glyph unicode="e" horiz-adv-x="792" d="M61 365v73h201v996h369l65 276h76l-82 -350h-276v-922h233v-73h-233v-291h231v-74h-383v365h-201z" />
<glyph unicode="f" horiz-adv-x="792" d="M61 365v73h201v996h369l65 276h76l-82 -350h-276v-922h233v-73h-233v-365h-152v365h-201z" />
<glyph unicode="g" horiz-adv-x="630" d="M102 328v778q0 167 65.5 255.5t190.5 88.5q45 0 84 -17.5t56 -34.5l16 -18l49 70l27 -18l-105 -150q-43 92 -127 92q-46 0 -75 -44t-29 -128v-971q0 -174 123 -174q121 0 121 172v148h-99v82h172v-230q0 -116 -60.5 -180.5t-152.5 -64.5q-49 0 -91.5 16t-81 52.5t-61 107 t-22.5 168.5z" />
<glyph unicode="h" horiz-adv-x="847" d="M123 0v1434h151v-975h299v975h152v-1434h-152v385h-299v-385h-151z" />
<glyph unicode="i" horiz-adv-x="397" d="M123 0v1434h151v-1434h-151z" />
<glyph unicode="j" horiz-adv-x="653" d="M61 229h74q0 -172 121 -172q123 0 123 174v1129h-244v74h395v-1106q0 -79 -15 -140.5t-39.5 -99t-59 -62t-68.5 -33.5t-72 -9q-93 0 -154 64.5t-61 180.5z" />
<glyph unicode="k" horiz-adv-x="710" d="M123 0v1434h151v-674h105q27 0 47 20t20 62v592h148v-506q0 -91 -43.5 -144t-112.5 -53v-22q70 -2 113 -51t43 -140v-444h55v-74h-203v604q0 41 -22.5 61.5t-52.5 20.5h-97v-686h-151z" />
<glyph unicode="l" horiz-adv-x="567" d="M123 0v1434h151v-1360h232v-74h-383z" />
<glyph unicode="m" horiz-adv-x="1230" d="M41 0v74h129v1360h221l244 -1379l256 1379h217v-1434h-152v1366l-254 -1366h-208l-250 1376v-1376h-203z" />
<glyph unicode="n" horiz-adv-x="878" d="M41 0v74h129v1360h213l260 -1368v1368h195v-74h-121v-1360h-213l-260 1366v-1366h-203z" />
<glyph unicode="o" d="M102 328v778q0 166 66 255t192 89t192 -89t66 -255v-778q0 -98 -22.5 -168.5t-61.5 -107t-82 -52.5t-92 -16t-92 16t-82 52.5t-61.5 107t-22.5 168.5zM254 231q0 -174 106 -174q107 0 107 174v971q0 84 -30 128t-77 44t-76.5 -44t-29.5 -128v-971z" />
<glyph unicode="p" horiz-adv-x="675" d="M123 0v1434h272q80 0 139.5 -53.5t59.5 -159.5v-367q0 -113 -51 -172t-125 -59h-144v-623h-151zM274 696h105q27 0 47 20t20 62v500q0 41 -22.5 61.5t-52.5 20.5h-97v-664z" />
<glyph unicode="q" d="M102 328v778q0 166 66 255t192 89t192 -89t66 -255v-778q0 -108 -29 -182t-69.5 -107.5t-95.5 -46.5l45 -191h-76l-43 183q-49 2 -90 18.5t-78 53.5t-58.5 106.5t-21.5 165.5zM254 231q0 -152 78 -170l-21 91h76l19 -84q61 30 61 163v971q0 84 -30 128t-77 44t-76.5 -44 t-29.5 -128v-971z" />
<glyph unicode="r" horiz-adv-x="718" d="M123 0v1434h280q80 0 139.5 -53.5t59.5 -159.5v-293q0 -96 -46.5 -145.5t-109.5 -49.5v-22q64 -2 110 -50t46 -143v-444h55v-74h-202v604q0 41 -19.5 61.5t-48.5 20.5h-113v-686h-151zM274 760h113q27 0 47.5 20t20.5 62v436q0 41 -23 61.5t-53 20.5h-105v-600z" />
<glyph unicode="s" horiz-adv-x="669" d="M41 0v74h100q54 0 84.5 62t30.5 171q0 91 -23 248l-53 336q-16 107 -16 223q0 48 15.5 102t45 106t80.5 86t113 34q82 0 153 -64l47 60l31 -25l-100 -131q-2 3 -6 8.5t-17.5 19t-28 23.5t-37 18.5t-44.5 8.5q-44 0 -81.5 -42.5t-37.5 -109.5q0 -31 4 -70.5t8 -66.5 t13 -79.5t12 -73.5l53 -336q12 -82 12 -191q0 -70 -14.5 -136.5t-44 -125t-81 -94t-118.5 -35.5h-100z" />
<glyph unicode="t" horiz-adv-x="757" d="M41 1360v74h676v-74h-262v-1360h-152v1360h-262z" />
<glyph unicode="u" horiz-adv-x="733" d="M41 1360v74h195v-1205q0 -172 120 -172q123 0 123 174v1203h152v-1106q0 -79 -15 -140.5t-39.5 -99t-59 -62t-68.5 -33.5t-72 -9q-93 0 -154 64.5t-61 180.5v1131h-121z" />
<glyph unicode="v" horiz-adv-x="1003" d="M31 1360v74h264l240 -1356l251 1356h187v-74h-123l-252 -1360h-207l-241 1360h-119z" />
<glyph unicode="w" horiz-adv-x="1392" d="M41 1360v74h264l201 -1350l162 872l-70 478h158l198 -1340l211 1340h187v-74h-121l-213 -1360h-207l-109 725l-135 -725h-207l-202 1360h-117z" />
<glyph unicode="x" horiz-adv-x="819" d="M20 0v74h72l250 651l-215 635h-66v74h203l172 -508l197 508h145v-74h-98l-209 -541l254 -745h74v-74h-213l-209 618l-236 -618h-121z" />
<glyph unicode="y" horiz-adv-x="692" d="M20 1360v74h203l164 -652l176 652h109v-74h-51l-197 -729v-631h-152v637l-186 723h-66z" />
<glyph unicode="z" horiz-adv-x="677" d="M61 0l338 1360h-317v74h493l-337 -1360h378v-74h-555z" />
<glyph unicode="{" horiz-adv-x="485" d="M82 717l102 104v735h219v-73h-108v-674l-90 -92l90 -88v-678h108v-74h-219v737z" />
<glyph unicode="|" horiz-adv-x="397" d="M123 -102v1638h151v-1638h-151z" />
<glyph unicode="}" horiz-adv-x="485" d="M82 -49h108v678l91 88l-91 92v674h-108v73h219v-735l102 -104l-102 -103v-737h-219v74z" />
<glyph unicode="~" horiz-adv-x="1189" d="M82 737q6 5 16.5 13.5t43 29.5t64.5 37t76 29.5t83 13.5q64 0 130 -19t113 -42.5t111.5 -42.5t126.5 -19q57 0 100 13t65.5 28.5t55.5 46.5l41 -47q-5 -5 -14 -13.5t-37.5 -29.5t-57.5 -37t-71.5 -29.5t-81.5 -13.5q-69 0 -138 19t-116 42.5t-108.5 42.5t-118.5 19 q-80 0 -134.5 -23.5t-113.5 -66.5z" />
<glyph unicode="&#xa1;" horiz-adv-x="315" d="M82 0l20 1044h111l20 -1044h-151zM82 1249v185h151v-185h-151z" />
<glyph unicode="&#xa2;" horiz-adv-x="630" d="M102 328v778q0 153 55 241t162 101v88h70v-88q36 -5 67.5 -22t44.5 -32l13 -14l49 70l27 -18l-105 -150q-43 92 -127 92q-46 0 -75 -44t-29 -128v-971q0 -174 123 -174q121 0 121 172h73q0 -105 -51 -168.5t-131 -74.5v-88h-70v88q-45 6 -81.5 25.5t-68 57.5t-49.5 104 t-18 155z" />
<glyph unicode="&#xa3;" horiz-adv-x="669" d="M41 0v74q105 6 170 67t65 166q0 129 -22 225h-172v82h147q-6 17 -31.5 88t-36.5 105t-28 94.5t-24 111.5t-7 101q0 54 15.5 109.5t45 105.5t80 81.5t113.5 31.5q83 0 154 -64l47 60l31 -25l-101 -131q-2 3 -6 8.5t-17.5 19t-28 23.5t-37 18.5t-44.5 8.5q-62 0 -91.5 -46 t-29.5 -124q0 -69 21 -167.5t44.5 -171.5t51 -151t29.5 -86h158v-82h-144q6 -40 6 -86q0 -70 -13.5 -135t-51 -131.5t-96.5 -105.5h370v-74h-567z" />
<glyph unicode="&#xa4;" horiz-adv-x="630" d="M20 573v82h82v123h-82v82h82v246q0 167 65.5 255.5t190.5 88.5q45 0 84 -17.5t56 -34.5l16 -18l49 70l27 -18l-105 -150q-43 92 -127 92q-46 0 -75 -44t-29 -128v-342h244v-82h-244v-123h244v-82h-244v-342q0 -174 123 -174q121 0 121 172h73q0 -116 -60.5 -180.5 t-152.5 -64.5q-49 0 -91.5 16t-81 52.5t-61 107t-22.5 168.5v245h-82z" />
<glyph unicode="&#xa5;" horiz-adv-x="692" d="M37 1360v74h203l147 -590l160 590h108v-74h-51l-180 -668v-78h180v-82h-180v-122h180v-82h-180v-328h-152v328h-184v82h184v122h-184v82h184v84l-170 662h-65z" />
<glyph unicode="&#xa6;" horiz-adv-x="397" d="M123 -102v716h151v-716h-151zM123 819v717h151v-717h-151z" />
<glyph unicode="&#xa7;" horiz-adv-x="915" d="M178 -102l68 32q19 -70 64 -105.5t100 -35.5t84.5 33t29.5 90q0 42 -33.5 118.5t-89.5 159.5l-86 129q-122 181 -122 334q0 106 57 177.5t147 89.5q-38 60 -53 84.5t-38 69.5t-31.5 81t-8.5 76q0 103 66.5 174.5t161.5 71.5t165 -70l50 70l26 -19l-104 -149 q-18 38 -50 65t-75 27q-47 0 -76 -34.5t-29 -90.5q0 -82 125 -275l84 -129q125 -196 125 -331q0 -108 -57.5 -181.5t-147.5 -87.5q38 -61 52 -84.5t36.5 -69t30.5 -82t8 -77.5q0 -102 -63 -173t-172 -71q-86 0 -149.5 49t-94.5 134zM326 721q0 -53 33 -142t75 -157l51 -82 q51 9 82 43.5t31 87.5q0 51 -32 141.5t-74 157.5l-52 80q-50 -8 -82 -42.5t-32 -86.5z" />
<glyph unicode="&#xa8;" horiz-adv-x="389" d="M61 1536v82h91v-82h-91zM238 1536v82h90v-82h-90z" />
<glyph unicode="&#xa9;" horiz-adv-x="929" d="M82 715q0 364 101.5 549.5t281.5 185.5t281.5 -185.5t101.5 -549.5t-101.5 -547.5t-281.5 -183.5t-281.5 183.5t-101.5 547.5zM150 715q0 -337 82.5 -505.5t232.5 -168.5t232.5 168.5t82.5 505.5t-82.5 507.5t-232.5 170.5t-232.5 -170.5t-82.5 -507.5zM301 496v442 q0 94 41 146.5t117 52.5q23 0 46 -9.5t35 -18.5l11 -9l27 39l22 -19l-68 -92q-29 55 -73 55q-26 0 -43 -23.5t-17 -68.5v-551q0 -92 70 -92q68 0 68 96h51q0 -69 -37 -108t-92 -39q-66 0 -112 45.5t-46 153.5z" />
<glyph unicode="&#xaa;" horiz-adv-x="628" d="M31 614v52h69l154 768h129l145 -768h70v-52h-164l-41 213h-203l-40 -213h-119zM199 883h186l-92 477z" />
<glyph unicode="&#xab;" horiz-adv-x="548" d="M82 717l145 289h76l-145 -289l145 -287h-76zM246 717l145 289h76l-145 -289l145 -287h-76z" />
<glyph unicode="&#xac;" d="M102 678v80h516v-230h-79v150h-437z" />
<glyph unicode="&#xad;" horiz-adv-x="462" d="M82 717v82h299v-82h-299z" />
<glyph unicode="&#xae;" horiz-adv-x="929" d="M82 715q0 364 101.5 549.5t281.5 185.5t281.5 -185.5t101.5 -549.5t-101.5 -547.5t-281.5 -183.5t-281.5 183.5t-101.5 547.5zM150 715q0 -337 82.5 -505.5t232.5 -168.5t232.5 168.5t82.5 505.5t-82.5 507.5t-232.5 170.5t-232.5 -170.5t-82.5 -507.5zM326 307v819h143 q47 0 84 -32t37 -93v-149q0 -65 -31.5 -97t-77.5 -32h-8v-8q46 -3 81.5 -39t35.5 -96v-222h33v-51h-129v332q0 21 -12 32t-27 11h-31v-375h-98zM424 758h35q14 0 24.5 10t10.5 33v233q0 21 -11.5 31t-27.5 10h-31v-317z" />
<glyph unicode="&#xaf;" horiz-adv-x="389" d="M61 1536v74h267v-74h-267z" />
<glyph unicode="&#xb0;" horiz-adv-x="448" d="M61 1266q0 72 47 120t115 48t116 -48.5t48 -119.5t-48 -119.5t-116 -48.5t-115 48t-47 120zM123 1266q0 -47 29 -77t71 -30q43 0 73 30t30 77q0 46 -30 76t-73 30q-42 0 -71 -30t-29 -76z" />
<glyph unicode="&#xb1;" d="M102 268v80h516v-80h-516zM102 678v80h217v217h82v-217h217v-80h-217v-217h-82v217h-217z" />
<glyph unicode="&#xb2;" horiz-adv-x="454" d="M82 614v52q0 209 98 323q30 34 47.5 58t32 63.5t14.5 83.5v104q0 95 -67 95q-70 0 -70 -99h-51q0 71 37.5 110.5t95.5 39.5q64 0 109 -45.5t45 -153.5v-51q0 -49 -21 -97t-42 -74.5t-62 -70.5q-29 -32 -43 -50.5t-33.5 -53.5t-28 -79.5t-8.5 -102.5h238v-52h-291z" />
<glyph unicode="&#xb3;" horiz-adv-x="450" d="M82 752h53q0 -97 68 -97q67 0 67 93v210q0 14 -10.5 22.5t-23.5 8.5h-66v76h66q13 0 23.5 8.5t10.5 22.5v202q0 95 -67 95q-68 0 -68 -99h-53q0 71 37.5 110.5t95.5 39.5q64 0 109 -45.5t45 -153.5v-86q0 -64 -32.5 -97.5t-76.5 -33.5h-8v-4q46 -2 81.5 -34t35.5 -95v-92 q0 -108 -45 -153.5t-109 -45.5q-58 0 -95.5 39t-37.5 109z" />
<glyph unicode="&#xb4;" horiz-adv-x="249" d="M61 1495l35 143h82l-41 -143h-76z" />
<glyph unicode="&#xb5;" horiz-adv-x="1230" d="M41 0v74h129v1360h221l244 -1379l256 1379h217v-1434h-152v1366l-254 -1366h-215l-243 1376v-1376h-203z" />
<glyph unicode="&#xb6;" horiz-adv-x="643" d="M61 973v157q0 79 16 136.5t40.5 89t61 50t68 23.5t72.5 5h222v-1536h-90v1462h-103v-1462h-90v731q-117 0 -157 81.5t-40 262.5z" />
<glyph unicode="&#xb7;" horiz-adv-x="315" d="M82 627v184h151v-184h-151z" />
<glyph unicode="&#xb8;" horiz-adv-x="249" d="M61 -256l52 215h75l-51 -215h-76z" />
<glyph unicode="&#xb9;" horiz-adv-x="323" d="M82 1382v52h160v-820h-99v768h-61z" />
<glyph unicode="&#xba;" horiz-adv-x="438" d="M61 803v442q0 95 41.5 147t118.5 52q75 0 115.5 -52.5t40.5 -146.5v-442q0 -56 -14 -97t-37.5 -62t-49.5 -30.5t-55 -9.5q-68 0 -114 45.5t-46 153.5zM160 748q0 -93 61 -93q58 0 58 93v550q0 45 -16.5 69t-41.5 24q-27 0 -44 -23.5t-17 -69.5v-550z" />
<glyph unicode="&#xbb;" horiz-adv-x="548" d="M82 430l145 287l-145 289h76l145 -289l-145 -287h-76zM246 430l145 287l-145 289h76l145 -289l-145 -287h-76z" />
<glyph unicode="&#xbc;" horiz-adv-x="1019" d="M82 1382v52h160v-820h-99v768h-61zM113 -41l675 1516h80l-678 -1516h-77zM575 279v49l164 491h133v-491h66v-49h-66v-279h-94v279h-203zM635 328h143v428z" />
<glyph unicode="&#xbd;" horiz-adv-x="1046" d="M82 1382v52h160v-820h-99v768h-61zM113 -41l675 1516h80l-678 -1516h-77zM674 0v51q0 210 98 324q30 34 47.5 58t32 63.5t14.5 83.5v104q0 94 -67 94q-70 0 -70 -98h-51q0 71 37.5 110t95.5 39q29 0 54.5 -9t49 -30t37 -61.5t13.5 -97.5v-51q0 -49 -21 -97t-42 -74.5 t-62 -70.5q-38 -42 -57 -68t-37.5 -84.5t-18.5 -134.5h238v-51h-291z" />
<glyph unicode="&#xbe;" horiz-adv-x="1054" d="M82 752h53q0 -97 68 -97q67 0 67 93v210q0 14 -10.5 22.5t-23.5 8.5h-66v76h66q13 0 23.5 8.5t10.5 22.5v202q0 95 -67 95q-68 0 -68 -99h-53q0 71 37.5 110.5t95.5 39.5q64 0 109 -45.5t45 -153.5v-86q0 -64 -32.5 -97.5t-76.5 -33.5h-8v-4q46 -2 81.5 -34t35.5 -95v-92 q0 -108 -45 -153.5t-109 -45.5q-58 0 -95.5 39t-37.5 109zM147 -41l676 1516h80l-678 -1516h-78zM610 279v49l164 491h133v-491h66v-49h-66v-279h-94v279h-203zM670 328h143v428z" />
<glyph unicode="&#xbf;" horiz-adv-x="591" d="M61 303q0 79 26.5 152.5t64.5 133.5t76 122t64.5 144t26.5 173v33h74v-33q0 -85 -18.5 -164t-45 -142t-53 -125.5t-45 -139t-18.5 -158.5q0 -120 30 -172.5t93 -52.5q121 0 121 172h73q0 -116 -61 -181t-154 -65q-47 0 -90 16.5t-81 50t-60.5 94.5t-22.5 142zM279 1266 v184h151v-184h-151z" />
<glyph unicode="&#xc0;" horiz-adv-x="1003" d="M31 0v74h121l254 1360h206l240 -1360h121v-74h-264l-68 377h-354l-70 -377h-186zM301 459h326l-158 895zM424 1638h82l35 -143h-76z" />
<glyph unicode="&#xc1;" horiz-adv-x="1003" d="M31 0v74h121l254 1360h206l240 -1360h121v-74h-264l-68 377h-354l-70 -377h-186zM301 459h326l-158 895zM455 1495l34 143h82l-41 -143h-75z" />
<glyph unicode="&#xc2;" horiz-adv-x="1003" d="M31 0v74h121l254 1360h206l240 -1360h121v-74h-264l-68 377h-354l-70 -377h-186zM301 459h326l-158 895zM334 1516l112 143h101l112 -143h-75l-88 102l-86 -102h-76z" />
<glyph unicode="&#xc3;" horiz-adv-x="1003" d="M31 0v74h121l254 1360h206l240 -1360h121v-74h-264l-68 377h-354l-70 -377h-186zM301 459h326l-158 895zM303 1516q1 6 4 15.5t16 34t29.5 43.5t46.5 34.5t66 15.5q33 0 60.5 -10.5t43 -25.5t26.5 -30.5t15 -26.5l4 -10l76 103h76l-113 -143h-100q-1 3 -2.5 9t-8.5 21 t-16 26t-25 20.5t-36 9.5q-31 0 -52.5 -21.5t-27.5 -42.5l-6 -22h-76z" />
<glyph unicode="&#xc4;" horiz-adv-x="1003" d="M31 0v74h121l254 1360h206l240 -1360h121v-74h-264l-68 377h-354l-70 -377h-186zM301 459h326l-158 895zM360 1536v82h91v-82h-91zM537 1536v82h90v-82h-90z" />
<glyph unicode="&#xc5;" horiz-adv-x="1003" d="M31 0v74h121l254 1360h206l240 -1360h121v-74h-264l-68 377h-354l-70 -377h-186zM301 459h326l-158 895zM406 1536q0 43 29.5 72.5t72.5 29.5t72.5 -29.5t29.5 -72.5t-29.5 -72.5t-72.5 -29.5t-72.5 29.5t-29.5 72.5zM451 1536q0 -26 15.5 -42.5t41.5 -16.5t41.5 16.5 t15.5 42.5t-15.5 42.5t-41.5 16.5t-41.5 -16.5t-15.5 -42.5z" />
<glyph unicode="&#xc6;" horiz-adv-x="968" d="M41 0v74h80l295 1360h491v-74h-276v-922h233v-73h-233v-291h231v-74h-383v377h-209l-84 -377h-145zM285 459h194v895z" />
<glyph unicode="&#xc7;" horiz-adv-x="630" d="M102 328v778q0 167 65.5 255.5t190.5 88.5q45 0 84 -17.5t56 -34.5l16 -18l49 70l27 -18l-105 -150q-43 92 -127 92q-46 0 -75 -44t-29 -128v-971q0 -174 123 -174q121 0 121 172h73q0 -104 -49 -167t-127 -74l-47 -203h-76l47 201q-44 6 -80.5 25.5t-68.5 57.5 t-50 104.5t-18 154.5z" />
<glyph unicode="&#xc8;" horiz-adv-x="751" d="M61 365v73h201v996h428v-74h-276v-922h233v-73h-233v-291h231v-74h-383v365h-201zM403 1638h82l35 -143h-76z" />
<glyph unicode="&#xc9;" horiz-adv-x="751" d="M61 365v73h201v996h428v-74h-276v-922h233v-73h-233v-291h231v-74h-383v365h-201zM436 1495l35 143h82l-41 -143h-76z" />
<glyph unicode="&#xca;" horiz-adv-x="751" d="M61 365v73h201v996h428v-74h-276v-922h233v-73h-233v-291h231v-74h-383v365h-201zM315 1516l113 143h100l113 -143h-76l-88 102l-86 -102h-76z" />
<glyph unicode="&#xcb;" horiz-adv-x="751" d="M61 365v73h201v996h428v-74h-276v-922h233v-73h-233v-291h231v-74h-383v365h-201zM344 1536v82h90v-82h-90zM520 1536v82h90v-82h-90z" />
<glyph unicode="&#xcc;" horiz-adv-x="397" d="M119 1638h82l35 -143h-76zM123 0v1434h151v-1434h-151z" />
<glyph unicode="&#xcd;" horiz-adv-x="397" d="M123 0v1434h151v-1434h-151zM160 1495l35 143h81l-40 -143h-76z" />
<glyph unicode="&#xce;" horiz-adv-x="397" d="M37 1516l113 143h100l112 -143h-75l-88 102l-86 -102h-76zM123 0v1434h151v-1434h-151z" />
<glyph unicode="&#xcf;" horiz-adv-x="397" d="M66 1536v82h90v-82h-90zM123 0v1434h151v-1434h-151zM242 1536v82h90v-82h-90z" />
<glyph unicode="&#xd0;" horiz-adv-x="700" d="M41 696v82h82v656h237q258 0 258 -328v-778q0 -328 -258 -328h-237v696h-82zM274 74h88q56 0 80.5 35t24.5 122v971q0 83 -29.5 120.5t-77.5 37.5h-86v-582h107v-82h-107v-622z" />
<glyph unicode="&#xd1;" horiz-adv-x="878" d="M41 0v74h129v1360h213l260 -1368v1368h195v-74h-121v-1360h-213l-260 1366v-1366h-203zM268 1516q1 6 4 15.5t16 34t29.5 43.5t46.5 34.5t66 15.5q33 0 60.5 -10.5t43 -25.5t27 -30.5t15.5 -26.5l4 -10l75 103h76l-113 -143h-100q-1 3 -2.5 9t-8.5 21t-16 26t-25 20.5 t-36 9.5q-31 0 -52.5 -21.5t-27.5 -42.5l-6 -22h-76z" />
<glyph unicode="&#xd2;" d="M102 328v778q0 166 66 255t192 89t192 -89t66 -255v-778q0 -98 -22.5 -168.5t-61.5 -107t-82 -52.5t-92 -16t-92 16t-82 52.5t-61.5 107t-22.5 168.5zM254 231q0 -174 106 -174q107 0 107 174v971q0 84 -30 128t-77 44t-76.5 -44t-29.5 -128v-971zM281 1638h81l35 -143 h-75z" />
<glyph unicode="&#xd3;" d="M102 328v778q0 166 66 255t192 89t192 -89t66 -255v-778q0 -98 -22.5 -168.5t-61.5 -107t-82 -52.5t-92 -16t-92 16t-82 52.5t-61.5 107t-22.5 168.5zM254 231q0 -174 106 -174q107 0 107 174v971q0 84 -30 128t-77 44t-76.5 -44t-29.5 -128v-971zM322 1495l34 143h82 l-41 -143h-75z" />
<glyph unicode="&#xd4;" d="M102 328v778q0 166 66 255t192 89t192 -89t66 -255v-778q0 -98 -22.5 -168.5t-61.5 -107t-82 -52.5t-92 -16t-92 16t-82 52.5t-61.5 107t-22.5 168.5zM197 1516l112 143h101l112 -143h-76l-88 102l-86 -102h-75zM254 231q0 -174 106 -174q107 0 107 174v971q0 84 -30 128 t-77 44t-76.5 -44t-29.5 -128v-971z" />
<glyph unicode="&#xd5;" d="M102 328v778q0 166 66 255t192 89t192 -89t66 -255v-778q0 -98 -22.5 -168.5t-61.5 -107t-82 -52.5t-92 -16t-92 16t-82 52.5t-61.5 107t-22.5 168.5zM150 1516q1 6 4 15.5t15.5 34t29 43.5t46.5 34.5t66 15.5q33 0 60.5 -10.5t43 -25.5t27 -30.5t15.5 -26.5l4 -10 l76 103h75l-112 -143h-101q-1 3 -2.5 9t-8.5 21t-16 26t-25 20.5t-36 9.5q-31 0 -52.5 -21.5t-27.5 -42.5l-6 -22h-75zM254 231q0 -174 106 -174q107 0 107 174v971q0 84 -30 128t-77 44t-76.5 -44t-29.5 -128v-971z" />
<glyph unicode="&#xd6;" d="M102 328v778q0 166 66 255t192 89t192 -89t66 -255v-778q0 -98 -22.5 -168.5t-61.5 -107t-82 -52.5t-92 -16t-92 16t-82 52.5t-61.5 107t-22.5 168.5zM227 1536v82h90v-82h-90zM254 231q0 -174 106 -174q107 0 107 174v971q0 84 -30 128t-77 44t-76.5 -44t-29.5 -128 v-971zM403 1536v82h91v-82h-91z" />
<glyph unicode="&#xd7;" d="M150 563l153 154l-153 153l57 58l153 -154l154 154l57 -58l-153 -153l153 -154l-57 -57l-154 153l-153 -153z" />
<glyph unicode="&#xd8;" d="M100 -41l43 154q-41 84 -41 215v778q0 166 66 255t192 89q93 0 156 -51l23 76h79l-43 -150q43 -82 43 -219v-778q0 -98 -22.5 -168.5t-61.5 -107t-82 -52.5t-92 -16q-95 0 -159 53l-23 -78h-78zM254 231q0 -174 106 -174q107 0 107 174v971q0 84 -30 128t-77 44 t-76.5 -44t-29.5 -128v-971z" />
<glyph unicode="&#xd9;" horiz-adv-x="733" d="M41 1360v74h195v-1205q0 -172 120 -172q123 0 123 174v1203h152v-1106q0 -79 -15 -140.5t-39.5 -99t-59 -62t-68.5 -33.5t-72 -9q-93 0 -154 64.5t-61 180.5v1131h-121zM307 1638h82l35 -143h-76z" />
<glyph unicode="&#xda;" horiz-adv-x="733" d="M41 1360v74h195v-1205q0 -172 120 -172q123 0 123 174v1203h152v-1106q0 -79 -15 -140.5t-39.5 -99t-59 -62t-68.5 -33.5t-72 -9q-93 0 -154 64.5t-61 180.5v1131h-121zM328 1495l34 143h82l-41 -143h-75z" />
<glyph unicode="&#xdb;" horiz-adv-x="733" d="M41 1360v74h195v-1205q0 -172 120 -172q123 0 123 174v1203h152v-1106q0 -79 -15 -140.5t-39.5 -99t-59 -62t-68.5 -33.5t-72 -9q-93 0 -154 64.5t-61 180.5v1131h-121zM203 1516l112 143h101l112 -143h-75l-88 102l-86 -102h-76z" />
<glyph unicode="&#xdc;" horiz-adv-x="733" d="M41 1360v74h195v-1205q0 -172 120 -172q123 0 123 174v1203h152v-1106q0 -79 -15 -140.5t-39.5 -99t-59 -62t-68.5 -33.5t-72 -9q-93 0 -154 64.5t-61 180.5v1131h-121zM233 1536v82h91v-82h-91zM410 1536v82h90v-82h-90z" />
<glyph unicode="&#xdd;" horiz-adv-x="692" d="M20 1360v74h203l164 -652l176 652h109v-74h-51l-197 -729v-631h-152v637l-186 723h-66zM330 1495l35 143h81l-40 -143h-76z" />
<glyph unicode="&#xde;" horiz-adv-x="675" d="M123 0v1434h151v-308h121q80 0 139.5 -53.5t59.5 -159.5v-325q0 -113 -51.5 -172.5t-124.5 -59.5h-144v-356h-151zM274 436h105q27 0 47 20t20 62v453q0 41 -22.5 61.5t-52.5 20.5h-97v-617z" />
<glyph unicode="&#xdf;" horiz-adv-x="1155" d="M41 0v74h100q54 0 84.5 62t30.5 171q0 91 -23 248l-53 336q-16 107 -16 223q0 48 15.5 102t45 106t80.5 86t113 34q82 0 153 -64l47 60l31 -25l-100 -131q-2 3 -6 8.5t-17.5 19t-28 23.5t-37 18.5t-44.5 8.5q-44 0 -81.5 -42.5t-37.5 -109.5q0 -31 4 -70.5t8 -66.5 t13 -79.5t12 -73.5l53 -336q12 -82 12 -191q0 -70 -14.5 -136.5t-44 -125t-81 -94t-118.5 -35.5h-100zM526 0v74h101q54 0 84 62t30 171q0 98 -22 248l-53 336q-17 113 -17 223q0 48 15.5 102t45 106t80.5 86t113 34q83 0 154 -64l47 60l31 -25l-101 -131q-2 3 -6 8.5 t-17.5 19t-28 23.5t-37 18.5t-44.5 8.5q-44 0 -81.5 -42.5t-37.5 -109.5q0 -31 4 -70.5t8 -66.5t13 -79.5t12 -73.5l53 -336q13 -88 13 -191q0 -70 -14.5 -136.5t-44 -125t-81 -94t-118.5 -35.5h-101z" />
<glyph unicode="&#xe0;" horiz-adv-x="1003" d="M31 0v74h121l254 1360h206l240 -1360h121v-74h-264l-68 377h-354l-70 -377h-186zM301 459h326l-158 895zM424 1638h82l35 -143h-76z" />
<glyph unicode="&#xe1;" horiz-adv-x="1003" d="M31 0v74h121l254 1360h206l240 -1360h121v-74h-264l-68 377h-354l-70 -377h-186zM301 459h326l-158 895zM455 1495l34 143h82l-41 -143h-75z" />
<glyph unicode="&#xe2;" horiz-adv-x="1003" d="M31 0v74h121l254 1360h206l240 -1360h121v-74h-264l-68 377h-354l-70 -377h-186zM301 459h326l-158 895zM334 1516l112 143h101l112 -143h-75l-88 102l-86 -102h-76z" />
<glyph unicode="&#xe3;" horiz-adv-x="1003" d="M31 0v74h121l254 1360h206l240 -1360h121v-74h-264l-68 377h-354l-70 -377h-186zM301 459h326l-158 895zM303 1516q1 6 4 15.5t16 34t29.5 43.5t46.5 34.5t66 15.5q33 0 60.5 -10.5t43 -25.5t26.5 -30.5t15 -26.5l4 -10l76 103h76l-113 -143h-100q-1 3 -2.5 9t-8.5 21 t-16 26t-25 20.5t-36 9.5q-31 0 -52.5 -21.5t-27.5 -42.5l-6 -22h-76z" />
<glyph unicode="&#xe4;" horiz-adv-x="1003" d="M31 0v74h121l254 1360h206l240 -1360h121v-74h-264l-68 377h-354l-70 -377h-186zM301 459h326l-158 895zM360 1536v82h91v-82h-91zM537 1536v82h90v-82h-90z" />
<glyph unicode="&#xe5;" horiz-adv-x="1003" d="M31 0v74h121l254 1360h206l240 -1360h121v-74h-264l-68 377h-354l-70 -377h-186zM301 459h326l-158 895zM406 1536q0 43 29.5 72.5t72.5 29.5t72.5 -29.5t29.5 -72.5t-29.5 -72.5t-72.5 -29.5t-72.5 29.5t-29.5 72.5zM451 1536q0 -26 15.5 -42.5t41.5 -16.5t41.5 16.5 t15.5 42.5t-15.5 42.5t-41.5 16.5t-41.5 -16.5t-15.5 -42.5z" />
<glyph unicode="&#xe6;" horiz-adv-x="968" d="M41 0v74h80l295 1360h491v-74h-276v-922h233v-73h-233v-291h231v-74h-383v377h-209l-84 -377h-145zM285 459h194v895z" />
<glyph unicode="&#xe7;" horiz-adv-x="630" d="M102 328v778q0 167 65.5 255.5t190.5 88.5q45 0 84 -17.5t56 -34.5l16 -18l49 70l27 -18l-105 -150q-43 92 -127 92q-46 0 -75 -44t-29 -128v-971q0 -174 123 -174q121 0 121 172h73q0 -104 -49 -167t-127 -74l-47 -203h-76l47 201q-44 6 -80.5 25.5t-68.5 57.5 t-50 104.5t-18 154.5z" />
<glyph unicode="&#xe8;" horiz-adv-x="751" d="M61 365v73h201v996h428v-74h-276v-922h233v-73h-233v-291h231v-74h-383v365h-201zM403 1638h82l35 -143h-76z" />
<glyph unicode="&#xe9;" horiz-adv-x="751" d="M61 365v73h201v996h428v-74h-276v-922h233v-73h-233v-291h231v-74h-383v365h-201zM436 1495l35 143h82l-41 -143h-76z" />
<glyph unicode="&#xea;" horiz-adv-x="751" d="M61 365v73h201v996h428v-74h-276v-922h233v-73h-233v-291h231v-74h-383v365h-201zM315 1516l113 143h100l113 -143h-76l-88 102l-86 -102h-76z" />
<glyph unicode="&#xeb;" horiz-adv-x="751" d="M61 365v73h201v996h428v-74h-276v-922h233v-73h-233v-291h231v-74h-383v365h-201zM344 1536v82h90v-82h-90zM520 1536v82h90v-82h-90z" />
<glyph unicode="&#xec;" horiz-adv-x="397" d="M119 1638h82l35 -143h-76zM123 0v1434h151v-1434h-151z" />
<glyph unicode="&#xed;" horiz-adv-x="397" d="M123 0v1434h151v-1434h-151zM160 1495l35 143h81l-40 -143h-76z" />
<glyph unicode="&#xee;" horiz-adv-x="397" d="M37 1516l113 143h100l112 -143h-75l-88 102l-86 -102h-76zM123 0v1434h151v-1434h-151z" />
<glyph unicode="&#xef;" horiz-adv-x="397" d="M66 1536v82h90v-82h-90zM123 0v1434h151v-1434h-151zM242 1536v82h90v-82h-90z" />
<glyph unicode="&#xf0;" horiz-adv-x="700" d="M41 696v82h82v656h237q258 0 258 -328v-778q0 -328 -258 -328h-237v696h-82zM274 74h88q56 0 80.5 35t24.5 122v971q0 83 -29.5 120.5t-77.5 37.5h-86v-582h107v-82h-107v-622z" />
<glyph unicode="&#xf1;" horiz-adv-x="878" d="M41 0v74h129v1360h213l260 -1368v1368h195v-74h-121v-1360h-213l-260 1366v-1366h-203zM268 1516q1 6 4 15.5t16 34t29.5 43.5t46.5 34.5t66 15.5q33 0 60.5 -10.5t43 -25.5t27 -30.5t15.5 -26.5l4 -10l75 103h76l-113 -143h-100q-1 3 -2.5 9t-8.5 21t-16 26t-25 20.5 t-36 9.5q-31 0 -52.5 -21.5t-27.5 -42.5l-6 -22h-76z" />
<glyph unicode="&#xf2;" d="M102 328v778q0 166 66 255t192 89t192 -89t66 -255v-778q0 -98 -22.5 -168.5t-61.5 -107t-82 -52.5t-92 -16t-92 16t-82 52.5t-61.5 107t-22.5 168.5zM254 231q0 -174 106 -174q107 0 107 174v971q0 84 -30 128t-77 44t-76.5 -44t-29.5 -128v-971zM281 1638h81l35 -143 h-75z" />
<glyph unicode="&#xf3;" d="M102 328v778q0 166 66 255t192 89t192 -89t66 -255v-778q0 -98 -22.5 -168.5t-61.5 -107t-82 -52.5t-92 -16t-92 16t-82 52.5t-61.5 107t-22.5 168.5zM254 231q0 -174 106 -174q107 0 107 174v971q0 84 -30 128t-77 44t-76.5 -44t-29.5 -128v-971zM322 1495l34 143h82 l-41 -143h-75z" />
<glyph unicode="&#xf4;" d="M102 328v778q0 166 66 255t192 89t192 -89t66 -255v-778q0 -98 -22.5 -168.5t-61.5 -107t-82 -52.5t-92 -16t-92 16t-82 52.5t-61.5 107t-22.5 168.5zM197 1516l112 143h101l112 -143h-76l-88 102l-86 -102h-75zM254 231q0 -174 106 -174q107 0 107 174v971q0 84 -30 128 t-77 44t-76.5 -44t-29.5 -128v-971z" />
<glyph unicode="&#xf5;" d="M102 328v778q0 166 66 255t192 89t192 -89t66 -255v-778q0 -98 -22.5 -168.5t-61.5 -107t-82 -52.5t-92 -16t-92 16t-82 52.5t-61.5 107t-22.5 168.5zM150 1516q1 6 4 15.5t15.5 34t29 43.5t46.5 34.5t66 15.5q33 0 60.5 -10.5t43 -25.5t27 -30.5t15.5 -26.5l4 -10 l76 103h75l-112 -143h-101q-1 3 -2.5 9t-8.5 21t-16 26t-25 20.5t-36 9.5q-31 0 -52.5 -21.5t-27.5 -42.5l-6 -22h-75zM254 231q0 -174 106 -174q107 0 107 174v971q0 84 -30 128t-77 44t-76.5 -44t-29.5 -128v-971z" />
<glyph unicode="&#xf6;" d="M102 328v778q0 166 66 255t192 89t192 -89t66 -255v-778q0 -98 -22.5 -168.5t-61.5 -107t-82 -52.5t-92 -16t-92 16t-82 52.5t-61.5 107t-22.5 168.5zM227 1536v82h90v-82h-90zM254 231q0 -174 106 -174q107 0 107 174v971q0 84 -30 128t-77 44t-76.5 -44t-29.5 -128 v-971zM403 1536v82h91v-82h-91z" />
<glyph unicode="&#xf7;" horiz-adv-x="749" d="M61 668v102h627v-102h-627zM299 369v143h152v-143h-152zM299 922v143h152v-143h-152z" />
<glyph unicode="&#xf8;" d="M100 -41l43 154q-41 84 -41 215v778q0 166 66 255t192 89q93 0 156 -51l23 76h79l-43 -150q43 -82 43 -219v-778q0 -98 -22.5 -168.5t-61.5 -107t-82 -52.5t-92 -16q-95 0 -159 53l-23 -78h-78zM254 231q0 -174 106 -174q107 0 107 174v971q0 84 -30 128t-77 44 t-76.5 -44t-29.5 -128v-971z" />
<glyph unicode="&#xf9;" horiz-adv-x="733" d="M41 1360v74h195v-1205q0 -172 120 -172q123 0 123 174v1203h152v-1106q0 -79 -15 -140.5t-39.5 -99t-59 -62t-68.5 -33.5t-72 -9q-93 0 -154 64.5t-61 180.5v1131h-121zM307 1638h82l35 -143h-76z" />
<glyph unicode="&#xfa;" horiz-adv-x="733" d="M41 1360v74h195v-1205q0 -172 120 -172q123 0 123 174v1203h152v-1106q0 -79 -15 -140.5t-39.5 -99t-59 -62t-68.5 -33.5t-72 -9q-93 0 -154 64.5t-61 180.5v1131h-121zM328 1495l34 143h82l-41 -143h-75z" />
<glyph unicode="&#xfb;" horiz-adv-x="733" d="M41 1360v74h195v-1205q0 -172 120 -172q123 0 123 174v1203h152v-1106q0 -79 -15 -140.5t-39.5 -99t-59 -62t-68.5 -33.5t-72 -9q-93 0 -154 64.5t-61 180.5v1131h-121zM203 1516l112 143h101l112 -143h-75l-88 102l-86 -102h-76z" />
<glyph unicode="&#xfc;" horiz-adv-x="733" d="M41 1360v74h195v-1205q0 -172 120 -172q123 0 123 174v1203h152v-1106q0 -79 -15 -140.5t-39.5 -99t-59 -62t-68.5 -33.5t-72 -9q-93 0 -154 64.5t-61 180.5v1131h-121zM233 1536v82h91v-82h-91zM410 1536v82h90v-82h-90z" />
<glyph unicode="&#xfd;" horiz-adv-x="692" d="M20 1360v74h203l164 -652l176 652h109v-74h-51l-197 -729v-631h-152v637l-186 723h-66zM330 1495l35 143h81l-40 -143h-76z" />
<glyph unicode="&#xfe;" horiz-adv-x="675" d="M123 0v1434h151v-308h121q80 0 139.5 -53.5t59.5 -159.5v-325q0 -113 -51.5 -172.5t-124.5 -59.5h-144v-356h-151zM274 436h105q27 0 47 20t20 62v453q0 41 -22.5 61.5t-52.5 20.5h-97v-617z" />
<glyph unicode="&#xff;" horiz-adv-x="692" d="M20 1360v74h203l164 -652l176 652h109v-74h-51l-197 -729v-631h-152v637l-186 723h-66zM254 1536v82h90v-82h-90zM430 1536v82h90v-82h-90z" />
<glyph unicode="&#x152;" horiz-adv-x="997" d="M102 328v778q0 166 66 255t192 89q32 0 70.5 -8t61.5 -8h344l65 276h76l-82 -350h-277v-922h234v-73h-234v-291h232v-74h-373q-17 0 -53 -8t-64 -8q-49 0 -92 16t-82 52.5t-61.5 107t-22.5 168.5zM254 231q0 -174 106 -174q107 0 107 174v988q-3 76 -33 115.5t-74 39.5 q-47 0 -76.5 -44t-29.5 -128v-971z" />
<glyph unicode="&#x153;" horiz-adv-x="956" d="M102 328v778q0 166 66 255t192 89q32 0 70.5 -8t61.5 -8h403v-74h-277v-922h234v-73h-234v-291h232v-74h-373q-17 0 -53 -8t-64 -8q-49 0 -92 16t-82 52.5t-61.5 107t-22.5 168.5zM254 231q0 -174 106 -174q107 0 107 174v988q-3 76 -33 115.5t-74 39.5q-47 0 -76.5 -44 t-29.5 -128v-971z" />
<glyph unicode="&#x178;" horiz-adv-x="692" d="M20 1360v74h203l164 -652l176 652h109v-74h-51l-197 -729v-631h-152v637l-186 723h-66zM254 1536v82h90v-82h-90zM430 1536v82h90v-82h-90z" />
<glyph unicode="&#x2c6;" horiz-adv-x="448" d="M61 1516l113 143h100l113 -143h-76l-88 102l-86 -102h-76z" />
<glyph unicode="&#x2dc;" horiz-adv-x="585" d="M61 1516q1 6 4 15.5t16 34t29.5 43.5t46.5 34.5t66 15.5q33 0 60.5 -10.5t43 -25.5t27 -30.5t15.5 -26.5l4 -10l76 103h75l-112 -143h-101q-1 3 -2.5 9t-8.5 21t-16 26t-25 20.5t-36 9.5q-31 0 -52.5 -21.5t-27.5 -42.5l-6 -22h-76z" />
<glyph unicode="&#x2000;" horiz-adv-x="855" />
<glyph unicode="&#x2001;" horiz-adv-x="1710" />
<glyph unicode="&#x2002;" horiz-adv-x="855" />
<glyph unicode="&#x2003;" horiz-adv-x="1710" />
<glyph unicode="&#x2004;" horiz-adv-x="570" />
<glyph unicode="&#x2005;" horiz-adv-x="427" />
<glyph unicode="&#x2006;" horiz-adv-x="285" />
<glyph unicode="&#x2007;" horiz-adv-x="285" />
<glyph unicode="&#x2008;" horiz-adv-x="213" />
<glyph unicode="&#x2009;" horiz-adv-x="342" />
<glyph unicode="&#x200a;" horiz-adv-x="95" />
<glyph unicode="&#x2010;" horiz-adv-x="462" d="M82 717v82h299v-82h-299z" />
<glyph unicode="&#x2011;" horiz-adv-x="462" d="M82 717v82h299v-82h-299z" />
<glyph unicode="&#x2012;" horiz-adv-x="462" d="M82 717v82h299v-82h-299z" />
<glyph unicode="&#x2013;" horiz-adv-x="798" d="M82 717v82h635v-82h-635z" />
<glyph unicode="&#x2014;" horiz-adv-x="1189" d="M82 717v82h1026v-82h-1026z" />
<glyph unicode="&#x2018;" horiz-adv-x="315" d="M82 1038v185l51 211h76l-49 -211h73v-185h-151z" />
<glyph unicode="&#x2019;" horiz-adv-x="315" d="M82 1249v185h151v-185l-51 -211h-76l50 211h-74z" />
<glyph unicode="&#x201a;" horiz-adv-x="315" d="M82 0v184h151v-184l-51 -211h-76l50 211h-74z" />
<glyph unicode="&#x201c;" horiz-adv-x="569" d="M82 1038v185l51 211h76l-49 -211h73v-185h-151zM336 1038v185l51 211h76l-49 -211h73v-185h-151z" />
<glyph unicode="&#x201d;" horiz-adv-x="569" d="M82 1249v185h151v-185l-51 -211h-76l50 211h-74zM336 1249v185h151v-185l-51 -211h-76l50 211h-74z" />
<glyph unicode="&#x201e;" horiz-adv-x="569" d="M82 0v184h151v-184l-51 -211h-76l50 211h-74zM336 0v184h151v-184l-51 -211h-76l50 211h-74z" />
<glyph unicode="&#x2022;" horiz-adv-x="360" d="M82 600v227h197v-227h-197z" />
<glyph unicode="&#x2026;" horiz-adv-x="946" d="M82 0v184h151v-184h-151zM397 0v184h152v-184h-152zM713 0v184h151v-184h-151z" />
<glyph unicode="&#x202f;" horiz-adv-x="342" />
<glyph unicode="&#x2039;" horiz-adv-x="385" d="M82 717l145 289h76l-145 -289l145 -287h-76z" />
<glyph unicode="&#x203a;" horiz-adv-x="385" d="M82 430l145 287l-145 289h76l145 -289l-145 -287h-76z" />
<glyph unicode="&#x205f;" horiz-adv-x="427" />
<glyph unicode="&#x20ac;" horiz-adv-x="630" d="M20 573v82h82v123h-82v82h82v246q0 167 65.5 255.5t190.5 88.5q45 0 84 -17.5t56 -34.5l16 -18l49 70l27 -18l-105 -150q-43 92 -127 92q-46 0 -75 -44t-29 -128v-342h244v-82h-244v-123h244v-82h-244v-342q0 -174 123 -174q121 0 121 172h73q0 -116 -60.5 -180.5 t-152.5 -64.5q-49 0 -91.5 16t-81 52.5t-61 107t-22.5 168.5v245h-82z" />
<glyph unicode="&#x2122;" horiz-adv-x="1292" d="M61 1378v56h433v-56h-164v-807h-105v807h-164zM555 571v58h78v805h151l146 -791q123 642 153 791h148v-863h-107v754l-147 -754h-146l-139 760v-760h-137z" />
<glyph unicode="&#x25fc;" horiz-adv-x="1433" d="M0 0v1434h1434v-1434h-1434z" />
</font>
</defs>
</svg>
